<?xml version="1.0" encoding="utf-8"?>
<!-- Generator: Adobe Illustrator 22.0.0, SVG Export Plug-In . SVG Version: 6.00 Build 0)  -->
<svg version="1.1" id="Layer_1" xmlns="http://www.w3.org/2000/svg" xmlns:xlink="http://www.w3.org/1999/xlink" x="0px" y="0px"
	 viewBox="0 0 1280 1024" style="enable-background:new 0 0 1280 1024;" xml:space="preserve">
<style type="text/css">
	.st0{opacity:0.2;}
	.st1{fill:#FCEE21;}
</style>
<g class="st0">
	<path class="st1" d="M595.4,842.7c-1.2,0-3.6,0-4.9-1.2c-7.3-2.4-12.1-8.5-13.4-15.8l-27.9-313.3l-40.1,21.9
		c-6.1,3.6-13.4,2.4-19.4-1.2L209.3,336.3c-6.1-4.9-8.5-12.1-7.3-19.4s7.3-13.4,15.8-13.4l839.1-120.2c7.3-1.2,14.6,2.4,18.2,8.5
		s3.6,14.6-1.2,20.6L610,835.4C607.6,840.2,601.5,842.7,595.4,842.7z M583.3,486.9l25.5,289l383.7-516.1L583.3,486.9z M268.8,332.6
		l227.1,160.3l468.7-259.9L268.8,332.6z"/>
</g>
</svg>
